<mxfile host="app.diagrams.net" modified="2024-02-12T15:58:26.949Z" agent="Mozilla/5.0 (Windows NT 10.0; Win64; x64) AppleWebKit/537.36 (KHTML, like Gecko) Chrome/121.0.0.0 Safari/537.36" version="23.1.2" etag="4fAN0cC_DGrVzt_Bfbc7" type="github">
  <diagram name="Pagina-1" id="3359I1O3hQxR5qLIz3mf">
    <mxGraphModel>
      <root>
        <mxCell id="0" />
        <mxCell id="1" parent="0" />
      </root>
    </mxGraphModel>
  </diagram>
</mxfile>
